<svg width="24" height="24" viewBox="0 0 24 24" fill="none" xmlns="http://www.w3.org/2000/svg">
<path d="M20.8721 24H20.5553C16.9855 23.6146 13.5558 22.4022 10.5408 20.4597C7.73973 18.6815 5.36118 16.3168 3.57058 13.53C1.61655 10.5185 0.399257 7.09213 0.0165982 3.52659C-0.0272713 3.10133 0.0160415 2.67164 0.143909 2.26356C0.271777 1.85549 0.481534 1.47754 0.760454 1.15266C1.03174 0.823423 1.36659 0.551766 1.74517 0.353774C2.12375 0.155782 2.53837 0.0354828 2.96447 0H6.546C7.3217 0.000779568 8.07155 0.277829 8.66014 0.781117C9.24874 1.2844 9.63728 1.98076 9.75561 2.74443C9.88652 3.72536 10.1315 4.68781 10.4857 5.61235C10.7012 6.19332 10.7457 6.82351 10.6139 7.4288C10.4821 8.03409 10.1796 8.58931 9.74183 9.02916L8.90155 9.86621C10.2245 11.9468 11.9992 13.7052 14.0948 15.012L14.935 14.1887C15.3766 13.7526 15.934 13.4512 16.5416 13.32C17.1492 13.1887 17.7818 13.233 18.3651 13.4477C19.2943 13.797 20.26 14.041 21.2441 14.175C22.0238 14.2917 22.7339 14.6879 23.2411 15.2892C23.7484 15.8906 24.0179 16.6556 23.9991 17.4408V20.7341C23.9991 21.5906 23.6585 22.4123 23.0518 23.0192C22.4451 23.6261 21.6217 23.9689 20.7619 23.9726L20.8721 24ZM6.546 2.0446H3.25375C3.0921 2.05524 2.93429 2.09843 2.78987 2.17154C2.64544 2.24466 2.51739 2.34618 2.41347 2.46998C2.31232 2.58595 2.23577 2.72111 2.18842 2.86732C2.14108 3.01353 2.12391 3.16777 2.13797 3.32075C2.4735 6.55442 3.56317 9.66519 5.32002 12.4048C6.94085 14.9388 9.09897 17.0887 11.6428 18.7033C14.394 20.4732 17.5206 21.5818 20.7757 21.9417C20.9449 21.9504 21.1141 21.9244 21.2728 21.8654C21.4316 21.8064 21.5765 21.7156 21.6986 21.5986C21.918 21.3746 22.0414 21.0745 22.043 20.7616V17.482C22.0492 17.1932 21.9489 16.9122 21.761 16.6922C21.5731 16.4721 21.3108 16.3284 21.0237 16.2882C19.8856 16.136 18.7677 15.8599 17.6901 15.4648C17.4778 15.3858 17.2473 15.3683 17.0254 15.4144C16.8035 15.4606 16.5993 15.5685 16.4365 15.7256L15.059 17.0978C14.8977 17.2545 14.6899 17.3551 14.4665 17.3848C14.2432 17.4145 14.0162 17.3716 13.8193 17.2624C10.8799 15.6078 8.44692 13.189 6.78018 10.2642C6.66609 10.0693 6.62041 9.84206 6.65034 9.61843C6.68028 9.3948 6.78412 9.18747 6.94548 9.02916L8.32299 7.65695C8.48096 7.4978 8.58964 7.29675 8.63605 7.07776C8.68245 6.85878 8.66464 6.63113 8.58472 6.42196C8.1871 5.3488 7.90991 4.2351 7.75821 3.1012C7.72404 2.80654 7.58097 2.53511 7.35687 2.33978C7.13278 2.14446 6.84372 2.03923 6.546 2.0446Z" fill="white"/>
</svg>
