<svg width="39" height="37" viewBox="0 0 39 37" fill="none" xmlns="http://www.w3.org/2000/svg">
<path fill-rule="evenodd" clip-rule="evenodd" d="M6.27655 4.3817L3.59012 14.9144C2.5767 15.1207 1.66573 15.6709 1.01148 16.4719C0.357224 17.2728 -0.000105644 18.2753 2.3429e-08 19.3095V25.7879C2.3429e-08 26.9773 0.47251 28.1181 1.31358 28.9591C2.15465 29.8002 3.29539 30.2727 4.48485 30.2727H33.6364C34.8258 30.2727 35.9666 29.8002 36.8076 28.9591C37.6487 28.1181 38.1212 26.9773 38.1212 25.7879V19.3095C38.1213 18.2753 37.764 17.2728 37.1097 16.4719C36.4555 15.6709 35.5445 15.1207 34.5311 14.9144L31.8469 4.3817C31.645 3.58892 31.2301 2.86647 30.6471 2.29256C30.0641 1.71865 29.3352 1.31513 28.5393 1.1257C25.4354 0.38117 22.2548 0.00335557 19.0628 0C15.8995 0 12.7392 0.375233 9.58188 1.1257C8.78603 1.31513 8.05715 1.71865 7.47415 2.29256C6.89114 2.86647 6.47847 3.58892 6.27655 4.3817ZM4.48709 17.0671C4.73629 17.0674 4.9785 16.9847 5.17545 16.832C5.3724 16.6793 5.51286 16.4654 5.57467 16.2239L8.44946 4.93333C8.55051 4.5368 8.75813 4.17549 9.04985 3.88852C9.34156 3.60155 9.70623 3.39987 10.1044 3.30533C13.0387 2.60182 16.0454 2.24508 19.0628 2.24242C22.0453 2.24242 25.0314 2.59747 28.0213 3.30758C28.4191 3.40248 28.7833 3.60431 29.0745 3.89126C29.3658 4.1782 29.5731 4.53933 29.674 4.93558L32.5488 16.2239C32.6106 16.4654 32.7511 16.6793 32.948 16.832C33.145 16.9847 33.3872 17.0674 33.6364 17.0671C34.2311 17.0671 34.8015 17.3033 35.222 17.7239C35.6425 18.1444 35.8788 18.7148 35.8788 19.3095V25.7879C35.8788 26.3826 35.6425 26.953 35.222 27.3735C34.8015 27.794 34.2311 28.0303 33.6364 28.0303H4.48485C3.89012 28.0303 3.31975 27.794 2.89922 27.3735C2.47868 26.953 2.24242 26.3826 2.24242 25.7879V19.3095C2.24242 18.7148 2.47868 18.1444 2.89922 17.7239C3.31975 17.3033 3.89236 17.0671 4.48709 17.0671Z" fill="#78A9F3"/>
<path fill-rule="evenodd" clip-rule="evenodd" d="M8.9719 31.394C8.9719 30.5019 8.61752 29.6463 7.98672 29.0155C7.35591 28.3847 6.50036 28.0303 5.60827 28.0303C4.71617 28.0303 3.86062 28.3847 3.22982 29.0155C2.59901 29.6463 2.24463 30.5019 2.24463 31.394V33.6364C2.24463 34.5285 2.59901 35.384 3.22982 36.0148C3.86062 36.6456 4.71617 37 5.60827 37C6.50036 37 7.35591 36.6456 7.98672 36.0148C8.61752 35.384 8.9719 34.5285 8.9719 33.6364V31.394ZM4.48705 31.394C4.48705 31.0966 4.60518 30.8114 4.81545 30.6011C5.02572 30.3909 5.3109 30.2727 5.60827 30.2727C5.90563 30.2727 6.19081 30.3909 6.40108 30.6011C6.61135 30.8114 6.72948 31.0966 6.72948 31.394V33.6364C6.72948 33.9337 6.61135 34.2189 6.40108 34.4292C6.19081 34.6395 5.90563 34.7576 5.60827 34.7576C5.3109 34.7576 5.02572 34.6395 4.81545 34.4292C4.60518 34.2189 4.48705 33.9337 4.48705 33.6364V31.394ZM35.881 31.394C35.881 30.5019 35.5266 29.6463 34.8958 29.0155C34.265 28.3847 33.4094 28.0303 32.5174 28.0303C31.6253 28.0303 30.7697 28.3847 30.1389 29.0155C29.5081 29.6463 29.1537 30.5019 29.1537 31.394V33.6364C29.1537 34.5285 29.5081 35.384 30.1389 36.0148C30.7697 36.6456 31.6253 37 32.5174 37C33.4094 37 34.265 36.6456 34.8958 36.0148C35.5266 35.384 35.881 34.5285 35.881 33.6364V31.394ZM31.3961 31.394C31.3961 31.0966 31.5143 30.8114 31.7245 30.6011C31.9348 30.3909 32.22 30.2727 32.5174 30.2727C32.8147 30.2727 33.0999 30.3909 33.3102 30.6011C33.5204 30.8114 33.6386 31.0966 33.6386 31.394V33.6364C33.6386 33.9337 33.5204 34.2189 33.3102 34.4292C33.0999 34.6395 32.8147 34.7576 32.5174 34.7576C32.22 34.7576 31.9348 34.6395 31.7245 34.4292C31.5143 34.2189 31.3961 33.9337 31.3961 33.6364V31.394ZM30.2749 25.7879C31.167 25.7879 32.0226 25.4335 32.6534 24.8027C33.2842 24.1719 33.6386 23.3164 33.6386 22.4243C33.6386 21.5322 33.2842 20.6766 32.6534 20.0458C32.0226 19.415 31.167 19.0606 30.2749 19.0606C29.3828 19.0606 28.5273 19.415 27.8965 20.0458C27.2657 20.6766 26.9113 21.5322 26.9113 22.4243C26.9113 23.3164 27.2657 24.1719 27.8965 24.8027C28.5273 25.4335 29.3828 25.7879 30.2749 25.7879ZM30.2749 21.3031C30.5723 21.3031 30.8575 21.4212 31.0677 21.6314C31.278 21.8417 31.3961 22.1269 31.3961 22.4243C31.3961 22.7216 31.278 23.0068 31.0677 23.2171C30.8575 23.4273 30.5723 23.5455 30.2749 23.5455C29.9776 23.5455 29.6924 23.4273 29.4821 23.2171C29.2718 23.0068 29.1537 22.7216 29.1537 22.4243C29.1537 22.1269 29.2718 21.8417 29.4821 21.6314C29.6924 21.4212 29.9776 21.3031 30.2749 21.3031ZM7.85069 25.7879C8.74278 25.7879 9.59834 25.4335 10.2291 24.8027C10.8599 24.1719 11.2143 23.3164 11.2143 22.4243C11.2143 21.5322 10.8599 20.6766 10.2291 20.0458C9.59834 19.415 8.74278 19.0606 7.85069 19.0606C6.9586 19.0606 6.10304 19.415 5.47224 20.0458C4.84144 20.6766 4.48705 21.5322 4.48705 22.4243C4.48705 23.3164 4.84144 24.1719 5.47224 24.8027C6.10304 25.4335 6.9586 25.7879 7.85069 25.7879ZM7.85069 21.3031C8.14805 21.3031 8.43324 21.4212 8.64351 21.6314C8.85377 21.8417 8.9719 22.1269 8.9719 22.4243C8.9719 22.7216 8.85377 23.0068 8.64351 23.2171C8.43324 23.4273 8.14805 23.5455 7.85069 23.5455C7.55333 23.5455 7.26814 23.4273 7.05787 23.2171C6.84761 23.0068 6.72948 22.7216 6.72948 22.4243C6.72948 22.1269 6.84761 21.8417 7.05787 21.6314C7.26814 21.4212 7.55333 21.3031 7.85069 21.3031ZM25.0007 5.60608H13.1249C12.372 5.60603 11.6409 5.85856 11.0485 6.32325C10.4562 6.78794 10.0368 7.43793 9.85766 8.16917L8.75887 12.654C8.63753 13.1492 8.63034 13.6655 8.73787 14.1639C8.84539 14.6623 9.06481 15.1297 9.37953 15.5309C9.69425 15.932 10.096 16.2563 10.5545 16.4793C11.013 16.7024 11.5162 16.8182 12.0261 16.8182H26.0995C26.6094 16.8182 27.1126 16.7024 27.5711 16.4793C28.0296 16.2563 28.4314 15.932 28.7461 15.5309C29.0608 15.1297 29.2802 14.6623 29.3878 14.1639C29.4953 13.6655 29.4881 13.1492 29.3668 12.654L28.268 8.16917C28.0887 7.43756 27.669 6.78729 27.0762 6.32256C26.4834 5.85783 25.754 5.60553 25.0007 5.60608ZM12.0351 8.70287C12.0948 8.459 12.2347 8.24224 12.4323 8.08733C12.6299 7.93242 12.8738 7.84832 13.1249 7.8485H25.0007C25.2515 7.84882 25.4948 7.93315 25.692 8.08802C25.8891 8.24289 26.0287 8.45937 26.0883 8.70287L27.1871 13.1877C27.2275 13.3527 27.23 13.5246 27.1942 13.6907C27.1584 13.8567 27.0854 14.0124 26.9807 14.1461C26.8759 14.2798 26.7422 14.3879 26.5896 14.4623C26.4369 14.5368 26.2694 14.5756 26.0995 14.5758H12.0261C11.8561 14.5759 11.6883 14.5374 11.5353 14.4631C11.3824 14.3888 11.2484 14.2807 11.1434 14.147C11.0384 14.0132 10.9652 13.8574 10.9293 13.6912C10.8934 13.525 10.8958 13.3528 10.9363 13.1877L12.0351 8.70287Z" fill="#78A9F3"/>
</svg>
