<svg width="39" height="37" viewBox="0 0 39 37" fill="none" xmlns="http://www.w3.org/2000/svg">
<path fill-rule="evenodd" clip-rule="evenodd" d="M6.27655 4.3817L3.59012 14.9144C2.5767 15.1207 1.66573 15.6709 1.01148 16.4719C0.357224 17.2728 -0.000105644 18.2753 2.3429e-08 19.3095V25.7879C2.3429e-08 26.9773 0.47251 28.1181 1.31358 28.9591C2.15465 29.8002 3.29539 30.2727 4.48485 30.2727H33.6364C34.8258 30.2727 35.9666 29.8002 36.8076 28.9591C37.6487 28.1181 38.1212 26.9773 38.1212 25.7879V19.3095C38.1213 18.2753 37.764 17.2728 37.1097 16.4719C36.4555 15.6709 35.5445 15.1207 34.5311 14.9144L31.8469 4.3817C31.645 3.58892 31.2301 2.86647 30.6471 2.29256C30.0641 1.71865 29.3352 1.31513 28.5393 1.1257C25.4354 0.38117 22.2548 0.00335557 19.0628 0C15.8995 0 12.7392 0.375233 9.58188 1.1257C8.78603 1.31513 8.05715 1.71865 7.47415 2.29256C6.89114 2.86647 6.47847 3.58892 6.27655 4.3817ZM4.48709 17.0671C4.73629 17.0674 4.9785 16.9847 5.17545 16.832C5.3724 16.6793 5.51286 16.4654 5.57467 16.2239L8.44946 4.93333C8.55051 4.5368 8.75813 4.17549 9.04985 3.88852C9.34156 3.60155 9.70623 3.39987 10.1044 3.30533C13.0387 2.60182 16.0454 2.24508 19.0628 2.24242C22.0453 2.24242 25.0314 2.59747 28.0213 3.30758C28.4191 3.40248 28.7833 3.60431 29.0745 3.89126C29.3658 4.1782 29.5731 4.53933 29.674 4.93558L32.5488 16.2239C32.6106 16.4654 32.7511 16.6793 32.948 16.832C33.145 16.9847 33.3872 17.0674 33.6364 17.0671C34.2311 17.0671 34.8015 17.3033 35.222 17.7239C35.6425 18.1444 35.8788 18.7148 35.8788 19.3095V25.7879C35.8788 26.3826 35.6425 26.953 35.222 27.3735C34.8015 27.794 34.2311 28.0303 33.6364 28.0303H4.48485C3.89012 28.0303 3.31975 27.794 2.89922 27.3735C2.47868 26.953 2.24242 26.3826 2.24242 25.7879V19.3095C2.24242 18.7148 2.47868 18.1444 2.89922 17.7239C3.31975 17.3033 3.89236 17.0671 4.48709 17.0671Z" fill="#65686B"/>
<path fill-rule="evenodd" clip-rule="evenodd" d="M8.9719 31.3938C8.9719 30.5017 8.61752 29.6462 7.98672 29.0154C7.35591 28.3846 6.50036 28.0302 5.60827 28.0302C4.71617 28.0302 3.86062 28.3846 3.22982 29.0154C2.59901 29.6462 2.24463 30.5017 2.24463 31.3938V33.6363C2.24463 34.5284 2.59901 35.3839 3.22982 36.0147C3.86062 36.6455 4.71617 36.9999 5.60827 36.9999C6.50036 36.9999 7.35591 36.6455 7.98672 36.0147C8.61752 35.3839 8.9719 34.5284 8.9719 33.6363V31.3938ZM4.48705 31.3938C4.48705 31.0965 4.60518 30.8113 4.81545 30.601C5.02572 30.3908 5.3109 30.2726 5.60827 30.2726C5.90563 30.2726 6.19081 30.3908 6.40108 30.601C6.61135 30.8113 6.72948 31.0965 6.72948 31.3938V33.6363C6.72948 33.9336 6.61135 34.2188 6.40108 34.4291C6.19081 34.6393 5.90563 34.7575 5.60827 34.7575C5.3109 34.7575 5.02572 34.6393 4.81545 34.4291C4.60518 34.2188 4.48705 33.9336 4.48705 33.6363V31.3938ZM35.881 31.3938C35.881 30.5017 35.5266 29.6462 34.8958 29.0154C34.265 28.3846 33.4094 28.0302 32.5174 28.0302C31.6253 28.0302 30.7697 28.3846 30.1389 29.0154C29.5081 29.6462 29.1537 30.5017 29.1537 31.3938V33.6363C29.1537 34.5284 29.5081 35.3839 30.1389 36.0147C30.7697 36.6455 31.6253 36.9999 32.5174 36.9999C33.4094 36.9999 34.265 36.6455 34.8958 36.0147C35.5266 35.3839 35.881 34.5284 35.881 33.6363V31.3938ZM31.3961 31.3938C31.3961 31.0965 31.5143 30.8113 31.7245 30.601C31.9348 30.3908 32.22 30.2726 32.5174 30.2726C32.8147 30.2726 33.0999 30.3908 33.3102 30.601C33.5204 30.8113 33.6386 31.0965 33.6386 31.3938V33.6363C33.6386 33.9336 33.5204 34.2188 33.3102 34.4291C33.0999 34.6393 32.8147 34.7575 32.5174 34.7575C32.22 34.7575 31.9348 34.6393 31.7245 34.4291C31.5143 34.2188 31.3961 33.9336 31.3961 33.6363V31.3938ZM30.2749 25.7878C31.167 25.7878 32.0226 25.4334 32.6534 24.8026C33.2842 24.1718 33.6386 23.3162 33.6386 22.4241C33.6386 21.532 33.2842 20.6765 32.6534 20.0457C32.0226 19.4149 31.167 19.0605 30.2749 19.0605C29.3828 19.0605 28.5273 19.4149 27.8965 20.0457C27.2657 20.6765 26.9113 21.532 26.9113 22.4241C26.9113 23.3162 27.2657 24.1718 27.8965 24.8026C28.5273 25.4334 29.3828 25.7878 30.2749 25.7878ZM30.2749 21.3029C30.5723 21.3029 30.8575 21.4211 31.0677 21.6313C31.278 21.8416 31.3961 22.1268 31.3961 22.4241C31.3961 22.7215 31.278 23.0067 31.0677 23.217C30.8575 23.4272 30.5723 23.5454 30.2749 23.5454C29.9776 23.5454 29.6924 23.4272 29.4821 23.217C29.2718 23.0067 29.1537 22.7215 29.1537 22.4241C29.1537 22.1268 29.2718 21.8416 29.4821 21.6313C29.6924 21.4211 29.9776 21.3029 30.2749 21.3029ZM7.85069 25.7878C8.74278 25.7878 9.59834 25.4334 10.2291 24.8026C10.8599 24.1718 11.2143 23.3162 11.2143 22.4241C11.2143 21.532 10.8599 20.6765 10.2291 20.0457C9.59834 19.4149 8.74278 19.0605 7.85069 19.0605C6.9586 19.0605 6.10304 19.4149 5.47224 20.0457C4.84144 20.6765 4.48705 21.532 4.48705 22.4241C4.48705 23.3162 4.84144 24.1718 5.47224 24.8026C6.10304 25.4334 6.9586 25.7878 7.85069 25.7878ZM7.85069 21.3029C8.14805 21.3029 8.43324 21.4211 8.64351 21.6313C8.85377 21.8416 8.9719 22.1268 8.9719 22.4241C8.9719 22.7215 8.85377 23.0067 8.64351 23.217C8.43324 23.4272 8.14805 23.5454 7.85069 23.5454C7.55333 23.5454 7.26814 23.4272 7.05787 23.217C6.84761 23.0067 6.72948 22.7215 6.72948 22.4241C6.72948 22.1268 6.84761 21.8416 7.05787 21.6313C7.26814 21.4211 7.55333 21.3029 7.85069 21.3029ZM25.0007 5.60596H13.1249C12.372 5.60591 11.6409 5.85844 11.0485 6.32313C10.4562 6.78782 10.0368 7.43781 9.85766 8.16905L8.75887 12.6539C8.63753 13.1491 8.63034 13.6654 8.73787 14.1638C8.84539 14.6622 9.06481 15.1296 9.37953 15.5307C9.69425 15.9319 10.096 16.2562 10.5545 16.4792C11.013 16.7022 11.5162 16.8181 12.0261 16.8181H26.0995C26.6094 16.8181 27.1126 16.7022 27.5711 16.4792C28.0296 16.2562 28.4314 15.9319 28.7461 15.5307C29.0608 15.1296 29.2802 14.6622 29.3878 14.1638C29.4953 13.6654 29.4881 13.1491 29.3668 12.6539L28.268 8.16905C28.0887 7.43744 27.669 6.78717 27.0762 6.32244C26.4834 5.85771 25.754 5.6054 25.0007 5.60596ZM12.0351 8.70275C12.0948 8.45887 12.2347 8.24212 12.4323 8.08721C12.6299 7.9323 12.8738 7.8482 13.1249 7.84838H25.0007C25.2515 7.8487 25.4948 7.93303 25.692 8.0879C25.8891 8.24277 26.0287 8.45925 26.0883 8.70275L27.1871 13.1876C27.2275 13.3525 27.23 13.5245 27.1942 13.6905C27.1584 13.8566 27.0854 14.0123 26.9807 14.146C26.8759 14.2796 26.7422 14.3878 26.5896 14.4622C26.4369 14.5366 26.2694 14.5754 26.0995 14.5757H12.0261C11.8561 14.5758 11.6883 14.5372 11.5353 14.4629C11.3824 14.3887 11.2484 14.2806 11.1434 14.1468C11.0384 14.0131 10.9652 13.8573 10.9293 13.6911C10.8934 13.5249 10.8958 13.3527 10.9363 13.1876L12.0351 8.70275Z" fill="#65686B"/>
</svg>
