<svg width="30" height="29" viewBox="0 0 30 29" fill="none" xmlns="http://www.w3.org/2000/svg">
<g id="skill-icons:instagram" clip-path="url(#clip0_33_281)">
<g id="Group">
<path id="Vector" d="M22.9688 0L7.03125 0C3.148 0 0 3.04306 0 6.79688L0 22.2031C0 25.9569 3.148 29 7.03125 29L22.9687 29C26.852 29 30 25.9569 30 22.2031L30 6.79688C30 3.04306 26.852 0 22.9688 0Z" fill="url(#paint0_radial_33_281)"/>
<path id="Vector_2" d="M22.9688 0L7.03125 0C3.148 0 0 3.04306 0 6.79688L0 22.2031C0 25.9569 3.148 29 7.03125 29L22.9687 29C26.852 29 30 25.9569 30 22.2031L30 6.79688C30 3.04306 26.852 0 22.9688 0Z" fill="url(#paint1_radial_33_281)"/>
<path id="Vector_3" d="M15.0011 3.17188C11.8185 3.17188 11.419 3.18536 10.1691 3.2403C8.92148 3.29558 8.06988 3.48646 7.3248 3.7666C6.55395 4.05592 5.90016 4.443 5.24883 5.07285C4.59691 5.70258 4.19648 6.33457 3.89625 7.0794C3.60563 7.79987 3.40793 8.62342 3.3518 9.82885C3.2959 11.0372 3.28125 11.4235 3.28125 14.5001C3.28125 17.5767 3.29531 17.9616 3.35203 19.1699C3.40945 20.3759 3.60691 21.1991 3.89648 21.9194C4.19602 22.6645 4.59645 23.2965 5.24801 23.9261C5.89922 24.5563 6.55301 24.9443 7.32328 25.2336C8.06895 25.5138 8.92066 25.7046 10.168 25.7599C11.418 25.8149 11.8172 25.8284 14.9996 25.8284C18.1826 25.8284 18.5808 25.8149 19.8307 25.7599C21.0783 25.7046 21.9308 25.5138 22.6765 25.2336C23.447 24.9443 24.0998 24.5563 24.7509 23.9261C25.4029 23.2965 25.8032 22.6645 26.1035 21.9197C26.3916 21.1991 26.5894 20.3757 26.648 19.1701C26.7041 17.9619 26.7187 17.5767 26.7187 14.5001C26.7188 11.4235 26.7041 11.0374 26.648 9.82907C26.5894 8.62308 26.3916 7.79998 26.1035 7.07974C25.8032 6.33457 25.4029 5.70258 24.7509 5.07285C24.0991 4.44278 23.4472 4.0557 22.6758 3.76671C21.9287 3.48646 21.0766 3.29546 19.8291 3.2403C18.579 3.18536 18.1811 3.17188 14.9974 3.17188H15.0011ZM13.9498 5.21332C14.2618 5.21286 14.61 5.21332 15.0011 5.21332C18.1301 5.21332 18.5009 5.22419 19.7365 5.27845C20.8791 5.32898 21.4992 5.51351 21.9123 5.66859C22.4592 5.87386 22.8491 6.11934 23.259 6.51594C23.6692 6.91242 23.923 7.28999 24.1359 7.81867C24.2964 8.21742 24.4875 8.81691 24.5395 9.9214C24.5957 11.1156 24.6079 11.4743 24.6079 14.4975C24.6079 17.5208 24.5957 17.8795 24.5395 19.0736C24.4873 20.1781 24.2964 20.7776 24.1359 21.1765C23.9236 21.7051 23.6692 22.0816 23.259 22.4778C22.8489 22.8743 22.4595 23.1197 21.9123 23.3251C21.4997 23.4808 20.8791 23.6649 19.7365 23.7154C18.5011 23.7697 18.1301 23.7815 15.0011 23.7815C11.8719 23.7815 11.501 23.7697 10.2657 23.7154C9.12316 23.6645 8.50301 23.4799 8.08957 23.3248C7.54277 23.1195 7.15207 22.8741 6.74191 22.4776C6.33176 22.0811 6.07793 21.7045 5.865 21.1756C5.70457 20.7767 5.51344 20.1772 5.46141 19.0727C5.40527 17.8785 5.39402 17.5199 5.39402 14.4947C5.39402 11.4695 5.40527 11.1128 5.46141 9.91857C5.51367 8.81407 5.70457 8.21459 5.865 7.81527C6.07746 7.28659 6.33176 6.90902 6.74203 6.51254C7.1523 6.11605 7.54277 5.87057 8.08969 5.66486C8.50277 5.50909 9.12316 5.32501 10.2657 5.27426C11.3468 5.22702 11.7657 5.21286 13.9498 5.21048V5.21332ZM21.2565 7.09424C20.4802 7.09424 19.8503 7.70256 19.8503 8.45316C19.8503 9.20365 20.4802 9.81254 21.2565 9.81254C22.0329 9.81254 22.6628 9.20365 22.6628 8.45316C22.6628 7.70267 22.0329 7.09379 21.2565 7.09379V7.09424ZM15.0011 8.68256C11.6776 8.68256 8.98301 11.2873 8.98301 14.5001C8.98301 17.7129 11.6776 20.3164 15.0011 20.3164C18.3246 20.3164 21.0183 17.7129 21.0183 14.5001C21.0183 11.2875 18.3244 8.68256 15.0008 8.68256H15.0011ZM15.0011 10.724C17.1584 10.724 18.9074 12.4145 18.9074 14.5001C18.9074 16.5855 17.1584 18.2762 15.0011 18.2762C12.8437 18.2762 11.0948 16.5855 11.0948 14.5001C11.0948 12.4145 12.8436 10.724 15.0011 10.724Z" fill="white"/>
</g>
</g>
<defs>
<radialGradient id="paint0_radial_33_281" cx="0" cy="0" r="1" gradientUnits="userSpaceOnUse" gradientTransform="translate(7.96875 31.2336) rotate(-90) scale(28.7412 27.6533)">
<stop stop-color="#FFDD55"/>
<stop offset="0.1" stop-color="#FFDD55"/>
<stop offset="0.5" stop-color="#FF543E"/>
<stop offset="1" stop-color="#C837AB"/>
</radialGradient>
<radialGradient id="paint1_radial_33_281" cx="0" cy="0" r="1" gradientUnits="userSpaceOnUse" gradientTransform="translate(-5.02512 2.08902) rotate(78.3013) scale(12.8648 54.7099)">
<stop stop-color="#3771C8"/>
<stop offset="0.128" stop-color="#3771C8"/>
<stop offset="1" stop-color="#6600FF" stop-opacity="0"/>
</radialGradient>
<clipPath id="clip0_33_281">
<rect width="30" height="29" fill="white"/>
</clipPath>
</defs>
</svg>
