<svg width="9" height="15" viewBox="0 0 9 15" fill="none" xmlns="http://www.w3.org/2000/svg">
<path d="M8.24143 0.622736C8.43091 0.825349 8.53735 1.10012 8.53735 1.38661C8.53735 1.67311 8.43091 1.94787 8.24143 2.15049L3.23845 7.49869L8.24143 12.8469C8.42554 13.0507 8.52741 13.3236 8.52511 13.6069C8.52281 13.8902 8.41651 14.1612 8.22912 14.3615C8.04173 14.5618 7.78823 14.6754 7.52323 14.6779C7.25822 14.6804 7.00292 14.5715 6.8123 14.3746L1.09475 8.26257C0.905271 8.05995 0.798828 7.78519 0.798828 7.49869C0.798828 7.2122 0.905271 6.93743 1.09475 6.73482L6.8123 0.622736C7.00183 0.420184 7.25886 0.306396 7.52686 0.306396C7.79487 0.306396 8.05189 0.420184 8.24143 0.622736Z" fill="white"/>
</svg>
