<svg width="9" height="15" viewBox="0 0 9 15" fill="none" xmlns="http://www.w3.org/2000/svg">
<path d="M0.758082 0.622736C0.568604 0.825349 0.462162 1.10012 0.462162 1.38661C0.462162 1.67311 0.568604 1.94787 0.758082 2.15049L5.76106 7.49869L0.758081 12.8469C0.573974 13.0507 0.472101 13.3236 0.474403 13.6069C0.476706 13.8902 0.583001 14.1612 0.770393 14.3615C0.957786 14.5618 1.21128 14.6754 1.47629 14.6779C1.74129 14.6804 1.99659 14.5715 2.18722 14.3746L7.90476 8.26257C8.09424 8.05995 8.20068 7.78519 8.20068 7.49869C8.20068 7.2122 8.09424 6.93743 7.90476 6.73482L2.18722 0.622736C1.99768 0.420184 1.74065 0.306396 1.47265 0.306396C1.20465 0.306396 0.947617 0.420184 0.758082 0.622736Z" fill="white"/>
</svg>
