<svg width="29" height="29" viewBox="0 0 29 29" fill="none" xmlns="http://www.w3.org/2000/svg">
<g id="logos:whatsapp-icon" clip-path="url(#clip0_33_286)">
<path id="Vector" d="M0.618877 14.3265C0.618197 16.7631 1.25982 19.1422 2.47986 21.2392L0.502197 28.404L7.89176 26.4815C9.93562 27.5855 12.2256 28.164 14.5527 28.1641H14.5588C22.241 28.1641 28.4944 21.9614 28.4977 14.3374C28.4992 10.6431 27.0506 7.16914 24.4186 4.55554C21.7871 1.94217 18.2872 0.502174 14.5582 0.500488C6.87517 0.500488 0.622162 6.70289 0.61899 14.3265" fill="url(#paint0_linear_33_286)"/>
<path id="Vector_2" d="M0.121211 14.322C0.120418 16.8462 0.785039 19.3104 2.04858 21.4825L0 28.9041L7.65453 26.9127C9.7636 28.0537 12.1382 28.6553 14.5545 28.6562H14.5607C22.5185 28.6562 28.9966 22.2303 29 14.3334C29.0014 10.5063 27.5006 6.90751 24.7746 4.20028C22.0483 1.49339 18.4233 0.00157364 14.5607 0C6.60158 0 0.124383 6.42496 0.121211 14.322ZM4.67976 21.1084L4.39395 20.6582C3.19249 18.7627 2.55834 16.5722 2.55925 14.3229C2.56174 7.75907 7.94532 2.41891 14.5653 2.41891C17.7711 2.42026 20.7839 3.66029 23.05 5.91015C25.316 8.16024 26.5629 11.1513 26.5621 14.3325C26.5591 20.8963 21.1754 26.2371 14.5607 26.2371H14.556C12.4021 26.236 10.2898 25.6621 8.44761 24.5775L8.00921 24.3195L3.46686 25.5012L4.67976 21.1084Z" fill="url(#paint1_linear_33_286)"/>
<path id="Vector_3" d="M10.9517 8.3344C10.6814 7.73833 10.397 7.7263 10.1399 7.71585C9.92947 7.70686 9.68886 7.70753 9.44848 7.70753C9.20787 7.70753 8.81693 7.79734 8.48649 8.15535C8.15571 8.51369 7.22363 9.37964 7.22363 11.1409C7.22363 12.9021 8.51651 14.6044 8.69674 14.8434C8.8772 15.0821 11.1927 18.8121 14.8598 20.247C17.9075 21.4395 18.5277 21.2023 19.1892 21.1425C19.8508 21.0829 21.3239 20.2768 21.6244 19.4408C21.9252 18.605 21.9252 17.8886 21.835 17.7388C21.7448 17.5897 21.5042 17.5001 21.1434 17.3211C20.7826 17.1422 19.0087 16.276 18.6781 16.1565C18.3473 16.0372 18.1068 15.9776 17.8662 16.336C17.6256 16.6939 16.9347 17.5001 16.7241 17.7388C16.5137 17.9781 16.3031 18.0079 15.9424 17.8289C15.5814 17.6492 14.4195 17.2717 13.041 16.0522C11.9684 15.1033 11.2443 13.9315 11.0338 13.5731C10.8234 13.2152 11.0113 13.0212 11.1922 12.8428C11.3543 12.6824 11.5531 12.4248 11.7337 12.2158C11.9136 12.0067 11.9736 11.8576 12.0939 11.6188C12.2144 11.3799 12.1541 11.1708 12.064 10.9917C11.9736 10.8127 11.2725 9.04221 10.9517 8.3344Z" fill="white"/>
</g>
<defs>
<linearGradient id="paint0_linear_33_286" x1="1400.28" y1="2790.85" x2="1400.28" y2="0.500488" gradientUnits="userSpaceOnUse">
<stop stop-color="#1FAF38"/>
<stop offset="1" stop-color="#60D669"/>
</linearGradient>
<linearGradient id="paint1_linear_33_286" x1="1450" y1="2890.41" x2="1450" y2="0" gradientUnits="userSpaceOnUse">
<stop stop-color="#F9F9F9"/>
<stop offset="1" stop-color="white"/>
</linearGradient>
<clipPath id="clip0_33_286">
<rect width="29" height="29" fill="white"/>
</clipPath>
</defs>
</svg>
